<svg width="103" height="25" viewBox="0 0 103 25" fill="none" xmlns="http://www.w3.org/2000/svg">
<g clip-path="url(#clip0)">
<path d="M24.0081 23.6843H18.2974L16.5492 19.3781H7.10918L5.47757 23.6843H0L8.50771 1.91394H14.568L24.0081 23.6843ZM11.6544 7.1771L8.50771 15.5503H15.0342L11.6544 7.1771Z" fill="white"/>
<path d="M44.6364 1.91394H49.1816V23.6843H43.9372V10.0479L38.2265 16.8661H37.4107L31.7 10.0479V23.6843H26.4556V1.91394H31.0008L37.8769 10.0479L44.6364 1.91394Z" fill="white"/>
<path d="M62.5843 1.91394C70.2762 1.91394 74.2386 6.81825 74.2386 12.7991C74.2386 19.0192 70.3927 23.5647 62.0015 23.5647H53.2607V1.91394H62.5843ZM58.5052 19.6173H62.0015C67.246 19.6173 68.8776 15.9092 68.8776 12.7991C68.8776 9.09097 66.8964 5.98093 61.885 5.98093H58.5052V19.6173Z" fill="white"/>
<path d="M95.6824 6.81818H84.7272L78.0842 0H102.325V24.8804L95.6824 18.0622V6.81818Z" fill="white"/>
<path d="M84.7272 18.0623V8.13403L77.8511 15.1915V25.0001H87.4077L94.2838 18.0623H84.7272Z" fill="white"/>
</g>
<defs>
<clipPath id="clip0">
<rect width="102.326" height="25" fill="white"/>
</clipPath>
</defs>
</svg>
