<svg width="34" height="34" viewBox="0 0 34 34" fill="none" xmlns="http://www.w3.org/2000/svg">
<circle cx="17" cy="17" r="17" fill="white" fill-opacity="0.3"/>
<path d="M21.339 15.2926H20.2854C19.4554 15.7235 18.4977 15.9788 17.508 15.9788C16.5023 15.9788 15.5606 15.7394 14.7305 15.2926H13.677C11.0911 15.2926 9 17.383 9 19.9522V26H26V19.9522C26 17.383 23.9089 15.2926 21.339 15.2926Z" fill="white"/>
<path d="M22.4082 9.89894C22.4082 7.20213 20.2054 5 17.5077 5C14.8101 5 12.5913 7.20213 12.5913 9.89894C12.5913 12.6117 14.7941 14.7979 17.4918 14.7979C20.1894 14.7979 22.4082 12.6117 22.4082 9.89894Z" fill="white"/>
</svg>
