<svg width="88" height="24" viewBox="0 0 88 24" fill="none" xmlns="http://www.w3.org/2000/svg">
<path d="M0 0H24.6783V4.81375H5.81846V9.2149H24.0764V13.9599H5.81846V19.1175H24.7452V23.9312H0V0Z" fill="white"/>
<path d="M55.576 18.9112V23.8625H49.8244V20.149C49.8244 17.8797 48.4868 16.7106 45.8785 16.7106H34.4422V23.8625H28.6238V0H46.5473C49.6906 0 51.9645 0.618911 53.3021 1.78797C54.6397 2.95702 55.3085 4.95129 55.3085 7.70201V9.35244C55.3085 10.7966 55.1747 11.8968 54.9072 12.6533C54.6397 13.4097 54.1715 14.0287 53.369 14.51C54.1046 14.7851 54.6397 15.2665 54.9741 15.9542C55.4422 16.5043 55.576 17.5358 55.576 18.9112ZM49.5569 8.66476V8.18338C49.5569 7.22063 49.3562 6.60172 48.955 6.25788C48.5537 5.91404 47.818 5.70774 46.6811 5.70774H34.3754V11.1404H46.8148C47.818 11.1404 48.5537 10.9341 48.955 10.5903C49.3562 10.2464 49.5569 9.62751 49.5569 8.66476Z" fill="white"/>
<path d="M70.3572 23.9312C65.9432 23.9312 62.9337 23.2436 61.3955 21.8682C59.8573 20.4928 59.1216 17.8797 59.1216 13.8911V10.8653C59.1216 6.32665 59.9241 3.36963 61.5292 1.99427C62.9337 0.687679 65.9432 0 70.5579 0H75.7076C80.5229 0 83.6662 0.550143 85.2044 1.58166C86.7426 2.61318 87.4783 4.81375 87.4783 8.18338H81.526C81.526 7.15186 81.1916 6.46418 80.5229 6.05158C79.6534 5.5702 77.9814 5.29513 75.3732 5.29513H70.8923C68.2171 5.29513 66.5451 5.5702 65.8764 6.18911C65.2076 6.80802 64.8732 8.32092 64.8732 10.7966V13.4097C64.8732 15.6791 65.2076 17.192 65.8764 17.8109C66.5451 18.4298 68.1502 18.7736 70.6916 18.7736H75.4401C78.0483 18.7736 79.7203 18.5673 80.456 18.2235C81.1916 17.8797 81.526 16.9857 81.526 15.6791H87.4783C87.4783 18.9799 86.8095 21.1805 85.405 22.212C83.8668 23.3811 80.5897 24 75.5738 24H70.3572V23.9312Z" fill="white"/>
</svg>
